<svg xmlns="http://www.w3.org/2000/svg" viewBox="0 0 576 512">
  <path d="M559 54.5C524.1 38.25 489.2 32 454.3 32c-110.8 0-221.8 62.38-332.6 62.38-27.79 0-55.57-4-83.36-13.75C35.21 79.5 32.06 79 29.03 79 13.5 79 0 92.38 0 110.8v317.4c0 12.62 6.525 24.5 16.99 29.38C51.86 473.8 86.85 480 121.7 480c110.8 0 221.7-62.38 332.6-62.38 27.79 0 55.57 4 83.36 13.75 3.15 1.125 6.301 1.625 9.338 1.625C562.5 433 576 419.6 576 401.1V83.88c0-12.63-6.5-24.5-17-29.38zm-31 96.7c-31.5-4-56-30.6-56-63.2 0-2.209.4486-4.262.6751-6.403C492 83.22 510.7 86.56 528 93.39v57.81zM208 256c0-53.02 35.82-96 79.1-96s79.1 42.98 79.1 96-35.82 96-79.1 96-79.1-43-79.1-96zM48 133.6c20.05 5 40.86 6.5 62.4 8.1C104.2 170.5 78.63 192 48 192v-58.4zm0 227.2c31.53 4 56 30.6 56 63.2 0 2.207-.4486 4.262-.6751 6.403C83.95 428.8 65.35 425.4 48 418.6v-57.8zm480 17.6c-20.05-5.02-40.85-7.4-62.44-8.139C471.8 341.5 497.4 320 528 320v58.4z"/>
</svg>
