<svg xmlns="http://www.w3.org/2000/svg" viewBox="0 0 576 512">
  <path d="M221.5 91.14l.375-.25c-12.28-63.94-77.16-105.7-142.1-85.94-47.97 14.42-78.9 61.31-78.9 111.4l.0001 363.7C0 497.7 14.33 512 31.1 512H128V260.5c0-9.946 2.316-19.76 6.764-28.65l55.49-110.1C196.9 107.6 208 97.14 221.5 91.14zM572.6 246.3l-55.52-111c-3.375-6.625-8.857-11.96-15.61-14.96L381 66.76c-8.25-3.625-17.76-3.622-26.01.0029L234.5 120.4c-6.7 3-12.3 8.2-15.6 14.9l-55.5 111c-2.3 4.5-3.4 9.3-3.4 14.2V512h128v-95.1h160V512h128V260.5c0-4.9-1.1-9.9-3.4-14.2zM416 320h-96v-96h96v96z"/>
</svg>
