<svg xmlns="http://www.w3.org/2000/svg" viewBox="0 0 640 512">
  <path d="M638.6 368.2l-33.4-211.6c-8.844-50.25-48.42-90.77-100.7-103.1C454.3 41.63 371.6 32 320 32c-51.6 0-134.3 9.63-184.5 21.48C83.16 65.84 43.63 106.3 34.78 156.6L1.4 368.2C-8.91 426.72 38.81 480 101.5 480c49.69 0 93.78-30.06 109.5-74.64l7.5-21.36h203l7.5 21.36C444.72 449.94 488.81 480 538.5 480c62.7-.9 110.4-53.3 100.1-111.8zM247.1 248l-32-.9V280c0 13.2-10.78 24-23.97 24-13.2 0-24.03-10.8-24.03-24l.0371-32.01L135.1 248c-12.3 0-24-10.8-24-24s10.77-24 23.97-24l32.04-.0117L167.1 168c0-13.2 10.82-24 24.03-24 13.2 0 23.97 10.8 23.97 24l.0371 31.99L247.1 200c13.2 0 24.03 10.8 24.03 24-.03 13.2-9.93 24-24.03 24zM432 311.1c-22.09 0-40-17.92-40-40s17.91-40 40-40 40 17.92 40 40c0 23-17.9 40-40 40zm64-96c-22.09 0-40-17.92-40-40s17.91-40 40-40 40 17.92 40 40c0 23-17.9 40-40 40z"/>
</svg>
